<?xml version="1.0" encoding="UTF-8" standalone="no"?>
<!-- Created with Inkscape (http://www.inkscape.org/) -->

<svg
   xmlns:dc="http://purl.org/dc/elements/1.1/"
   xmlns:cc="http://creativecommons.org/ns#"
   xmlns:rdf="http://www.w3.org/1999/02/22-rdf-syntax-ns#"
   xmlns:svg="http://www.w3.org/2000/svg"
   xmlns="http://www.w3.org/2000/svg"
   xmlns:sodipodi="http://sodipodi.sourceforge.net/DTD/sodipodi-0.dtd"
   xmlns:inkscape="http://www.inkscape.org/namespaces/inkscape"
   width="128"
   height="128"
   id="svg2"
   version="1.1"
   inkscape:version="0.48.5 r10040"
   sodipodi:docname="polls_icon_1.svg">
  <defs
     id="defs4">
    <inkscape:perspective
       sodipodi:type="inkscape:persp3d"
       inkscape:vp_x="3.5355335 : 100.3655 : 1"
       inkscape:vp_y="0 : 1000 : 0"
       inkscape:vp_z="144.16244 : 99.102799 : 1"
       inkscape:persp3d-origin="53.898475 : 32.060066 : 1"
       id="perspective3192" />
    <inkscape:perspective
       sodipodi:type="inkscape:persp3d"
       inkscape:vp_x="-1.2626911 : 101.12311 : 1"
       inkscape:vp_y="0 : 1000 : 0"
       inkscape:vp_z="139.36422 : 99.860413 : 1"
       inkscape:persp3d-origin="49.10025 : 32.81768 : 1"
       id="perspective3055" />
  </defs>
  <sodipodi:namedview
     id="base"
     pagecolor="#ffffff"
     bordercolor="#666666"
     borderopacity="1.0"
     inkscape:pageopacity="0.0"
     inkscape:pageshadow="2"
     inkscape:zoom="1.4"
     inkscape:cx="37.532474"
     inkscape:cy="18.863852"
     inkscape:document-units="px"
     inkscape:current-layer="layer1"
     showgrid="false"
     inkscape:window-width="1536"
     inkscape:window-height="803"
     inkscape:window-x="-8"
     inkscape:window-y="-8"
     inkscape:window-maximized="1"
     inkscape:snap-bbox="true"
     inkscape:bbox-nodes="false" />
  <metadata
     id="metadata7">
    <rdf:RDF>
      <cc:Work
         rdf:about="">
        <dc:format>image/svg+xml</dc:format>
        <dc:type
           rdf:resource="http://purl.org/dc/dcmitype/StillImage" />
        <dc:title></dc:title>
      </cc:Work>
    </rdf:RDF>
  </metadata>
  <g
     inkscape:label="Layer 1"
     inkscape:groupmode="layer"
     id="layer1"
     transform="translate(0,-924.36218)">
    <g
       id="g3057"
       style="fill:#ffeeaa;stroke:#000000;stroke-width:1.59485410000000010;stroke-linecap:round;stroke-linejoin:round;stroke-miterlimit:4;stroke-opacity:1;stroke-dasharray:none"
       transform="matrix(1.5000856,0,0,1.0483397,-32.253689,-46.188259)">
      <path
         d="m 27.161827,963.65301 0,21.43029 20.545413,-5.96602 0,-17.50617 z"
         style="fill:#353564;fill-rule:evenodd;stroke:#000000;stroke-opacity:1;stroke-width:1.59485410000000010;stroke-miterlimit:4;stroke-dasharray:none;stroke-linejoin:round"
         id="path3201"
         inkscape:connector-curvature="0" />
      <path
         d="m 47.70724,961.61111 53.11362,11.24968 0,36.49371 -53.11362,-30.23722 z"
         style="fill:#e9e9ff;fill-rule:evenodd;stroke:#000000;stroke-opacity:1;stroke-width:1.59485410000000010;stroke-miterlimit:4;stroke-dasharray:none;stroke-linejoin:round"
         id="path3203"
         inkscape:connector-curvature="0" />
      <path
         d="m 77.025092,982.94081 0.08418,60.91099 23.652073,-15.228 0,-55.42234 z"
         style="fill:#d7d7ff;fill-rule:evenodd;stroke:#000000;stroke-width:1.59485411999999990;stroke-miterlimit:4;stroke-opacity:1;stroke-dasharray:none;stroke-linecap:round;stroke-linejoin:round"
         id="path3207"
         inkscape:connector-curvature="0"
         sodipodi:nodetypes="ccccc" />
      <path
         d="M 27.161827,963.65301 77.025092,982.9046 100.82086,972.86079 47.454702,959.5908 z"
         style="fill:#4d4d9f;fill-rule:evenodd;stroke:#000000;stroke-opacity:1;stroke-width:1.59485410000000010;stroke-miterlimit:4;stroke-dasharray:none;stroke-linejoin:round"
         id="path3205"
         inkscape:connector-curvature="0"
         sodipodi:nodetypes="ccccc" />
      <path
         d="m 27.161827,963.65301 49.831698,19.25159 0.03157,61.0676 -49.863265,-26.5675 z"
         style="fill:#8686bf;fill-rule:evenodd;stroke:#000000;stroke-width:1.59485411999999990;stroke-linecap:round;stroke-miterlimit:4;stroke-opacity:1;stroke-dasharray:none;stroke-linejoin:round"
         id="path3209"
         inkscape:connector-curvature="0"
         sodipodi:nodetypes="ccccc" />
      <path
         sodipodi:nodetypes="ccccc"
         inkscape:connector-curvature="0"
         id="path3224"
         style="fill:#000000;fill-rule:evenodd;stroke:#000000;stroke-width:1.59485412;stroke-linecap:butt;stroke-linejoin:miter;stroke-miterlimit:4;stroke-opacity:1;stroke-dasharray:none"
         d="m 43.79181,963.34979 36.090426,14.19767 3.974341,-2.0081 -36.243749,-13.51507 z" />
    </g>
    <g
       id="g3178"
       style="fill:#ffeeaa;stroke:#000000;stroke-width:1.5948541;stroke-linecap:round;stroke-linejoin:miter;stroke-miterlimit:4;stroke-opacity:1;stroke-dasharray:none"
       transform="matrix(1.5000856,0,0,1.0483397,-32.253689,-46.188259)">
      <path
         d="m 46.022071,931.03885 35.154712,-1.64848 -1.54061,46.44771 -33.614102,-12.19935 z"
         style="fill:#ffeeaa;fill-rule:evenodd;stroke:#000000;stroke-width:1.5948541;stroke-miterlimit:4;stroke-opacity:1;stroke-dasharray:none"
         id="path3218"
         inkscape:connector-curvature="0"
         sodipodi:nodetypes="ccccc" />
    </g>
    <g
       transform="matrix(1.5000856,0,0,1.0483397,-12.075117,-26.545402)"
       style="fill:#ffeeaa;stroke:#000000;stroke-width:1;stroke-linecap:round;stroke-linejoin:miter;stroke-miterlimit:4;stroke-opacity:1;stroke-dasharray:none"
       id="g4016">
      <path
         sodipodi:nodetypes="ccccc"
         inkscape:connector-curvature="0"
         id="path4028"
         style="fill:#ffffff;fill-rule:evenodd;stroke:#000000;stroke-width:0.79742705;stroke-miterlimit:4;stroke-opacity:1;stroke-dasharray:none"
         d="m 59.612775,947.31778 3.567365,0.49224 -0.110768,4.95218 -3.476015,-1.49323 z" />
      <path
         d="m 59.705233,931.60439 3.560973,0.51066 -0.110569,5.13748 -3.469786,-1.5491 z"
         style="fill:#ffffff;fill-rule:evenodd;stroke:#000000;stroke-width:0.79742705;stroke-miterlimit:4;stroke-opacity:1;stroke-dasharray:none"
         id="path4034"
         inkscape:connector-curvature="0"
         sodipodi:nodetypes="ccccc" />
      <path
         sodipodi:nodetypes="ccccc"
         inkscape:connector-curvature="0"
         id="path4036"
         style="fill:#ffffff;fill-rule:evenodd;stroke:#000000;stroke-width:0.79742705;stroke-miterlimit:4;stroke-opacity:1;stroke-dasharray:none"
         d="m 59.712624,939.24205 3.546113,0.55492 -0.110108,5.58285 -3.455307,-1.68339 z" />
      <path
         d="m 59.870403,922.74288 3.567365,0.49224 -0.110768,4.95218 -3.476015,-1.49323 z"
         style="fill:#ffffff;fill-rule:evenodd;stroke:#000000;stroke-width:0.79742705;stroke-miterlimit:4;stroke-opacity:1;stroke-dasharray:none"
         id="path4038"
         inkscape:connector-curvature="0"
         sodipodi:nodetypes="ccccc" />
      <path
         d="m 59.970252,914.66715 3.546113,0.55492 -0.110108,5.58285 -3.455307,-1.68339 z"
         style="fill:#ffffff;fill-rule:evenodd;stroke:#000000;stroke-width:0.79742705;stroke-miterlimit:4;stroke-opacity:1;stroke-dasharray:none"
         id="path4040"
         inkscape:connector-curvature="0"
         sodipodi:nodetypes="ccccc" />
      <path
         style="fill:none;stroke:#000000;stroke-width:1px;stroke-linecap:butt;stroke-linejoin:miter;stroke-opacity:1"
         d="m 41.25,35.142857 c 2.869361,1.43468 0.167837,0.283567 1.428572,0.535714 0.184575,0.03692 0.353103,0.132919 0.535714,0.178572 0.230986,0.05775 0.483299,-0.05775 0.714286,0 0.08167,0.02042 0.09871,0.151951 0.178571,0.178571 0.112938,0.03765 0.238095,0 0.357143,0 0.162209,0 1.134076,-0.03864 1.25,0 0.07986,0.02662 0.103279,0.140925 0.178571,0.178572 0.05324,0.02662 0.136482,-0.04209 0.178572,0 0.238095,0.238095 -0.297619,0.178571 0.178571,0.178571 0.476191,0 -0.05952,-0.05952 0.178572,0.178571 0.04209,0.04209 0.119047,0 0.178571,0 0.119048,0 0.250663,-0.05324 0.357143,0 0.05324,0.02662 -0.01882,0.122103 0,0.178572 0.04209,0.126269 0.08446,0.263027 0.178571,0.357143 0.04209,0.04209 0.136482,-0.04209 0.178572,0 0.04209,0.04209 -0.04209,0.136481 0,0.178571 0.04209,0.04209 0.136481,-0.04209 0.178571,0 0.04209,0.04209 -0.04209,0.136482 0,0.178572 0.04886,0.04886 0.617413,-0.04844 0.714286,0 0.175596,0.0878 0.181546,0.269344 0.357143,0.357142 0.05324,0.02662 0.119047,0 0.178571,0 0.119048,0.119048 0.21706,0.263755 0.357143,0.357143 0.04953,0.03302 0.136482,-0.04209 0.178571,0 0.04209,0.04209 -0.04209,0.136482 0,0.178572 0.04209,0.04209 0.136482,-0.04209 0.178572,0 0.04209,0.04209 -0.04209,0.136481 0,0.178571 0.08418,0.08418 0.272963,-0.08418 0.357143,0 0.04209,0.04209 0,0.119048 0,0.178572 0.119047,0 0.250663,-0.05324 0.357143,0 0.05324,0.02662 -0.04209,0.136481 0,0.178571 0.04209,0.04209 0.119047,0 0.178571,0 0.05952,0 0.125332,0.02662 0.178571,0 0.743172,-0.371586 -0.190899,0.01233 0.178572,-0.357143 0.08418,-0.08418 0.272963,0.08418 0.357143,0 0.04209,-0.04209 -0.04209,-0.136482 0,-0.178571 0.04209,-0.04209 0.119047,0 0.178571,0 0.342404,0 0.276465,-0.08068 0.535714,0.178571 0.05952,0.05952 0.140926,0.103279 0.178572,0.178572 0.219906,0.439812 -0.518346,-0.161203 0.178571,0.535714 0.04209,0.04209 0.122102,-0.01882 0.178572,0 0.126269,0.04209 0.230873,0.136482 0.357143,0.178571 0.05647,0.01882 0.119047,0 0.178571,0 0.178571,0 0.357143,0 0.535714,0 0.288026,0 1.401439,0.04114 1.607143,0 0.165089,-0.03302 0.206558,-0.28185 0.357143,-0.357143 0.05324,-0.02662 0.136482,0.04209 0.178571,0 0.04209,-0.04209 0.04209,-0.136481 0,-0.178571 -0.04209,-0.04209 -0.119047,0 -0.178571,0 -0.05952,0 -0.136482,-0.04209 -0.178571,0 -0.0057,0.0057 0,0.492406 0,0.535714 0,0.05952 -0.04209,0.136482 0,0.178572 0.04209,0.04209 0.136481,-0.04209 0.178571,0 0.04209,0.04209 -0.02662,0.125331 0,0.178571 0.03765,0.07529 0.140925,0.103279 0.178571,0.178572 0.02662,0.05324 -0.04209,0.136481 0,0.178571 0.04209,0.04209 0.125332,-0.02662 0.178572,0 0.743171,0.371586 -0.190899,-0.01233 0.178571,0.357143 0.04209,0.04209 0.136482,-0.04209 0.178572,0 0.04209,0.04209 -0.04209,0.136482 0,0.178571 0.156031,0.156031 0.753384,0.287407 0.892857,0.357143 0.07529,0.03765 0.0969,0.158155 0.178571,0.178572 0.01031,0.0026 1.172827,0.01929 1.25,0 0.129126,-0.03228 0.263028,-0.08446 0.357143,-0.178572 0.04209,-0.04209 -0.05952,-0.178571 0,-0.178571 0.08418,0 0.119048,0.119047 0.178572,0.178571 0.05952,0.05952 0.140925,0.103279 0.178571,0.178572 0.02662,0.05324 -0.02662,0.125331 0,0.178571 0.03765,0.07529 0.140925,0.103279 0.178571,0.178571 0.02662,0.05324 -0.05324,0.151952 0,0.178572 0.10648,0.05324 0.250664,-0.05324 0.357143,0 0.05324,0.02662 -0.05324,0.151951 0,0.178571 0.10648,0.05324 0.24165,-0.02887 0.357143,0 0.129125,0.03228 0.238095,0.119048 0.357143,0.178572 0.178571,0 0.359572,-0.02936 0.535714,0 0.18567,0.03095 0.353104,0.132918 0.535715,0.178571 0.107674,0.02692 0.852412,-0.04044 0.892857,0 0.04209,0.04209 -0.05647,0.159748 0,0.178572 0.169407,0.05647 0.357143,0 0.535714,0 0.119048,0 0.238095,0 0.357143,0 0.416667,0 0.833333,0 1.25,0 0.05952,0 0.136482,-0.04209 0.178571,0 0.04209,0.04209 -0.04209,0.136481 0,0.178571 0.04209,0.04209 0.125332,-0.02662 0.178572,0 0.441322,0.220661 -0.06164,0.178571 0.357143,0.178571 0.05952,0 0.122102,-0.01882 0.178571,0 0.126269,0.04209 0.233563,0.12914 0.357143,0.178572 0.174768,0.06991 0.367355,0.09439 0.535714,0.178571 0.07529,0.03765 0.09691,0.158155 0.178572,0.178572 0.173239,0.04331 0.359572,-0.02936 0.535714,0 0.18567,0.03095 0.353103,0.132918 0.535714,0.178571 0.16448,0.04112 0.375277,-0.05348 0.535714,0 0.126269,0.04209 0.230874,0.136482 0.357143,0.178572 0.05647,0.01882 0.136482,-0.04209 0.178572,0 0.36947,0.36947 -0.5646,-0.01444 0.178571,0.357142 0.05324,0.02662 0.119048,0 0.178572,0 0.119047,0 0.238095,0 0.357142,0 0.357143,0 0.714286,0 1.071429,0 0.416667,0 0.833333,0 1.25,0 0.143756,0 0.602205,-0.03736 0.714286,0 0.119047,0.05952 0.238095,0.119048 0.357143,0.178572 0,0.05952 -0.04209,0.136482 0,0.178571 0.04209,0.04209 0.119047,0 0.178571,0 0.05952,0 0.119048,0 0.178571,0 0.05952,0 0.119048,0 0.178572,0 0.05952,0 0.178571,-0.05952 0.178571,0 0,0.05952 -0.238095,0 -0.178571,0 0.119047,0 0.238095,0 0.357143,0 0.05952,0 -0.119048,0 -0.178572,0"
         id="path4044"
         inkscape:connector-curvature="0"
         transform="matrix(0.66662862,0,0,0.95388928,8.0496186,907.06055)" />
      <path
         style="fill:none;stroke:#000000;stroke-width:1px;stroke-linecap:butt;stroke-linejoin:miter;stroke-opacity:1"
         d="m 42.678572,30.5 c 0.417608,0.01512 0.684052,0.43887 1.071428,0.535714 0.115493,0.02887 0.238095,0 0.357143,0 0.416667,0 0.833333,0 1.25,0 0.05952,0 0.136482,0.04209 0.178571,0 0.04209,-0.04209 0,-0.119048 0,-0.178571 0.119048,-0.05952 0.263028,-0.08446 0.357143,-0.178572 0.08418,-0.08418 -0.08418,-0.441322 0,-0.357143 0.438663,0.06367 0.07416,0.379097 0.178572,0.535715 0.09339,0.140083 0.238095,0.238095 0.357143,0.357143 0.05952,0.05952 0.140925,0.103279 0.178571,0.178571 0.02662,0.05324 -0.04209,0.136482 0,0.178571 0.04209,0.04209 0.125332,-0.02662 0.178571,0 0.07529,0.03765 0.09871,0.151952 0.178572,0.178572 0.112938,0.03765 0.238095,0 0.357143,0 0.05952,0 0.122102,0.01882 0.178571,0 0.20046,-0.06682 0.519233,-0.195053 0.357143,-0.357143 -0.04209,-0.04209 -0.119048,0 -0.178571,0 -0.04331,0 -0.529972,-0.0057 -0.535715,0 -0.04209,0.04209 0.02662,0.125332 0,0.178571 -0.03765,0.07529 -0.178571,0.09439 -0.178571,0.178572 0,0.133099 0.136482,0.230874 0.178571,0.357143 0.01882,0.05647 -0.04209,0.136481 0,0.178571 0.04209,0.04209 0.119048,0 0.178572,0 0.119047,0 0.238095,0 0.357143,0 0.08042,0 0.481368,0.02717 0.535714,0 0.272317,-0.136159 0.178571,-0.469264 0.178571,-0.714286"
         id="path4048"
         inkscape:connector-curvature="0"
         transform="matrix(0.66662862,0,0,0.95388928,8.0496186,907.06055)" />
      <path
         style="fill:none;stroke:#000000;stroke-width:1px;stroke-linecap:butt;stroke-linejoin:miter;stroke-opacity:1"
         d="m 53.392857,32.821428 c 0.119048,-0.238095 0.220185,-0.486022 0.357143,-0.714285 0.25382,-0.423034 0.07095,-0.03547 0.357143,-0.178572 0.07529,-0.03765 0.103279,-0.140925 0.178571,-0.178571 0.142858,-0.07143 0.392858,0.07143 0.535715,0 0.05324,-0.02662 -0.05952,-0.178572 0,-0.178572 0.05952,0 0,0.119048 0,0.178572 0,0.119047 0.02887,0.241649 0,0.357143 -0.04565,0.18261 -0.119048,0.357143 -0.178572,0.535714 -0.05952,0.178571 -0.07416,0.379097 -0.178571,0.535714 -0.03302,0.04953 -0.136482,-0.04209 -0.178572,0 -0.04209,0.04209 0,0.119048 0,0.178572 0,0.05952 -0.04209,0.136481 0,0.178571 0.04209,0.04209 0.119048,0 0.178572,0 0.05952,0 0.119047,0 0.178571,0 0.178572,0 0.362475,0.04331 0.535715,0 0.08167,-0.02042 0.119047,-0.119048 0.178571,-0.178571 0.119048,-0.119048 0.21706,-0.263755 0.357143,-0.357143 0.04953,-0.03302 0.136482,0.04209 0.178571,0 0.16865,-0.16865 -0.430351,-0.524997 0.357143,0 0.07004,0.04669 0.112838,0.125985 0.178572,0.178571 0.232401,0.185921 0.485648,0.345183 0.714285,0.535715 0.129337,0.10778 0.238096,0.238095 0.357143,0.357142 0.05952,0.05952 0.103279,0.140926 0.178572,0.178572 0.05324,0.02662 0.125331,0.02662 0.178571,0 0.295305,-0.147653 0.12579,-0.146017 0.178571,-0.357143 0.09131,-0.365221 0.283313,-0.702278 0.357143,-1.071429 0.02335,-0.116735 -0.02887,-0.241649 0,-0.357142 0.03228,-0.129126 0.14629,-0.228018 0.178572,-0.357143 0.02887,-0.115494 0.05324,-0.250664 0,-0.357143 -0.02662,-0.05324 -0.151952,-0.05324 -0.178572,0 -0.374149,0.748299 0.06803,0.191326 0.178572,0.357143 0.104411,0.156617 0.132918,0.353103 0.178571,0.535714 0.01444,0.05775 -0.03302,0.129045 0,0.178571 0.09339,0.140083 0.263754,0.21706 0.357143,0.357143 0.03302,0.04953 -0.04209,0.136482 0,0.178572 0.09412,0.09412 0.263027,0.08446 0.357143,0.178571 0.04209,0.04209 -0.04209,0.136482 0,0.178572 0.04209,0.04209 0.119047,0 0.178571,0 0.119048,0.119047 0.263754,0.217059 0.357143,0.357142 0.03302,0.04953 -0.04209,0.136482 0,0.178572 0.04209,0.04209 0.136482,-0.04209 0.178572,0 0.09411,0.09412 0.136481,0.230874 0.178571,0.357143 0.01882,0.05647 -0.04209,0.136481 0,0.178571 0.04209,0.04209 0.125332,-0.02662 0.178571,0 0.07529,0.03765 0.10328,0.140925 0.178572,0.178572 0.09524,0.04762 0.2619,-0.04762 0.357143,0 0.07529,0.03765 0.262751,0.178571 0.178571,0.178571 -0.133099,0 -0.230874,-0.136482 -0.357143,-0.178571 -0.05647,-0.01882 -0.125331,0.02662 -0.178571,0 -0.07529,-0.03765 -0.09439,-0.178572 -0.178572,-0.178572 -0.05952,0 -0.04209,0.136482 0,0.178572 0.04209,0.04209 0.136482,-0.04209 0.178572,0 0.04209,0.04209 -0.02662,0.125331 0,0.178571 0.162581,0.325163 0.13546,0.104677 0.357143,0.178571 C 61.687003,35.52662 61.203708,35.5 61.607143,35.5 c 0.238095,0 0.47619,0 0.714286,0 0.05952,0 0.119047,0 0.178571,0 0.05952,0 0.178572,0.05952 0.178572,0 0,-0.08418 -0.140926,-0.103279 -0.178572,-0.178572 -0.02662,-0.05324 0,-0.119047 0,-0.178571 0,-0.193452 -0.05952,-0.386905 0.357143,-0.178571 0.05324,0.02662 -0.04209,0.136481 0,0.178571 0.04209,0.04209 0.122102,-0.01882 0.178571,0 0.126269,0.04209 0.238096,0.119048 0.357143,0.178571 0.238096,0.119048 0.492795,0.209483 0.714286,0.357143 0.07004,0.04669 0.103279,0.140925 0.178571,0.178572 0.05324,0.02662 0.119048,0 0.178572,0 0.05952,0 0.119047,0 0.178571,0 0.238096,0 0.4833,0.05775 0.714286,0 0.08167,-0.02042 0.10853,-0.131877 0.178571,-0.178572 1.428572,-0.952381 -0.654761,0.654762 0.535715,-0.535714 0.210448,-0.210449 0.481884,-0.349793 0.714285,-0.535714 0.06573,-0.05259 0.151952,-0.09871 0.178572,-0.178572 0.032,-0.096 0,-0.563098 0,-0.714285 0,-0.05952 -0.05952,-0.178572 0,-0.178572 0.05952,0 0,0.119048 0,0.178572 0,0.05952 0,0.119047 0,0.178571 0,0.206701 0.03986,0.733432 0,0.892857 -0.07289,0.291576 -0.284249,0.42271 -0.357143,0.714286 -0.04331,0.17324 0,0.357143 0,0.535714 0,0.05952 -0.04209,0.136482 0,0.178572 0.04209,0.04209 0.119048,0 0.178571,0 0.05952,0 0.119048,0 0.178572,0 0.183966,0 1.197294,0.02635 1.25,0 0.07529,-0.03765 0.103279,-0.140926 0.178571,-0.178572 0.05324,-0.02662 0.136482,0.04209 0.178572,0 0.08418,-0.08418 -0.05324,-0.250663 0,-0.357143 0.03765,-0.07529 0.119047,-0.119047 0.178571,-0.178571 0.05952,-0.05952 0.103279,-0.140925 0.178572,-0.178572 0.05324,-0.02662 0.119047,0 0.178571,0 0.119048,0 0.244204,-0.03765 0.357143,0 0.07986,0.02662 0.09871,0.151952 0.178571,0.178572 0.112939,0.03765 0.250664,-0.05324 0.357143,0 0.05324,0.02662 -0.04209,0.136482 0,0.178571 0.08418,0.08418 0.250664,-0.05324 0.357143,0 0.07529,0.03765 0.103279,0.140925 0.178571,0.178572 0.05435,0.02717 0.455294,0 0.535715,0"
         id="path4050"
         inkscape:connector-curvature="0"
         transform="matrix(0.66662862,0,0,0.95388928,8.0496186,907.06055)" />
      <path
         style="fill:none;stroke:#000000;stroke-width:1px;stroke-linecap:butt;stroke-linejoin:miter;stroke-opacity:1"
         d="m 42.5,24.964285 c 0.297619,0.05952 0.593474,0.128675 0.892857,0.178572 0.264878,0.04415 0.62134,0 0.892857,0 0.476191,0 0.952381,0 1.428572,0 0.178571,0 0.359572,-0.02936 0.535714,0 0.18567,0.03094 0.349375,0.151951 0.535714,0.178571 0.235703,0.03367 0.476191,0 0.714286,0 0.357143,0 0.714286,0 1.071429,0 0.340766,0 0.02615,-0.04209 0.357143,0.178572 0.156018,0.104012 1.410131,0.709017 1.428571,0.714285 0.178571,0 0.357143,0 0.535714,0 0.05952,0.05952 0.09871,0.151952 0.178572,0.178572 0.189752,0.06325 0.524533,-0.06325 0.714285,0 0.126269,0.04209 0.246398,0.104741 0.357143,0.178571 0.07004,0.04669 0.09691,0.158155 0.178572,0.178572 0.173239,0.04331 0.358521,-0.02215 0.535714,0 0.301169,0.03765 0.59085,0.148371 0.892857,0.178571 0.296142,0.02961 0.595238,0 0.892857,0 0.476191,0 0.952381,0 1.428572,0 0.357143,0 0.714285,0 1.071428,0 0.05952,0 0.119048,0 0.178572,0 0.05952,0 0.129044,-0.03302 0.178571,0 0.140083,0.09339 0.21706,0.263754 0.357143,0.357143 0.04953,0.03302 0.122102,-0.01882 0.178571,0 0.126269,0.04209 0.230874,0.136482 0.357143,0.178572 0.267857,0.08929 0.178572,-0.178572 0.535715,0 0.05324,0.02662 -0.05647,0.159748 0,0.178571 0.169407,0.05647 0.357142,0 0.535714,0 0.297619,0 0.595238,0 0.892857,0 0.119048,0 0.24165,-0.02887 0.357143,0 0.129125,0.03228 0.226628,0.152468 0.357143,0.178571 0.175103,0.03502 0.357143,0 0.535714,0 0.238095,0 0.47619,0 0.714286,0 0.119047,0 0.240407,-0.02335 0.357143,0 0.184575,0.03692 0.353103,0.132919 0.535714,0.178572 0.152155,0.03804 0.378275,0 0.535714,0 0.178572,0 0.359573,0.02936 0.535714,0 0.743172,-0.123862 0.309947,-0.16284 0.892858,-0.357143 0.112938,-0.03765 0.238095,0 0.357142,0 0.416667,0 0.833334,0 1.25,0 0.535715,0 1.071429,0 1.607143,0 0.204761,0 0.529305,-0.04624 0.714286,0 0.129125,0.03228 0.228018,0.14629 0.357143,0.178571 0.115493,0.02887 0.244204,-0.03765 0.357143,0 C 69.901288,27.848048 69.924708,27.962354 70,28 c 0.04617,0.02308 0.944857,0 1.071429,0 0.05293,0 0.89043,0 0.357143,0"
         id="path4052"
         inkscape:connector-curvature="0"
         transform="matrix(0.66662862,0,0,0.95388928,8.0496186,907.06055)" />
      <path
         style="fill:none;stroke:#000000;stroke-width:1px;stroke-linecap:butt;stroke-linejoin:miter;stroke-opacity:1"
         d="m 42.142857,17.464285 c 0.422527,0.211264 0.626185,0.446192 1.071429,0.357143 0.184575,-0.03692 0.374308,-0.08173 0.535714,-0.178571 0.144367,-0.08662 0.238095,-0.238095 0.357143,-0.357143 0.05952,-0.05952 0.140925,-0.103279 0.178571,-0.178571 0.237199,-0.474398 0.178572,-0.922363 0.178572,-1.428572 0,-0.238095 0.03914,-0.47943 0,-0.714286 -0.02188,-0.131288 -0.14629,-0.228017 -0.178572,-0.357142 -0.05775,-0.230987 0.10648,-0.501327 0,-0.714286 -0.02662,-0.05324 -0.151951,0.05324 -0.178571,0 -0.05324,-0.10648 0,-0.476191 0,-0.357143 0,0.360417 0,0.711012 0,1.071429 0,0.119047 -0.02335,0.240407 0,0.357142 0.07585,0.379237 0.281296,0.692193 0.357143,1.071429 0.02335,0.116736 -0.01957,0.239715 0,0.357143 0.04035,0.242084 0.143863,0.471329 0.178571,0.714286 0.05051,0.353553 -0.07004,0.721221 0,1.071428 0.0752,0.375988 0.35114,0.437424 0.535715,0.714286 0.656245,0.984368 -0.156246,0.100449 0.357142,0.357143 0.07529,0.03765 0.09439,0.178571 0.178572,0.178571 0.05952,0 0,-0.119047 0,-0.178571 0,-0.05952 0,-0.119048 0,-0.178572 0,-0.69758 0.05324,-0.01885 -0.178572,-0.714285 -0.0092,-0.02761 -0.178174,-0.937203 -0.357142,-1.071429 -0.150585,-0.112938 -0.38513,-0.06563 -0.535715,-0.178571 -0.106479,-0.07986 -0.08446,-0.263028 -0.178571,-0.357143 -0.04209,-0.04209 -0.136482,-0.04209 -0.178572,0 -0.04209,0.04209 -0.02211,0.123305 0,0.178571 0.188603,0.471507 0.534667,1.070381 0.892858,1.428572 0.151756,0.151756 0.351682,0.246723 0.535714,0.357142 0.114132,0.06848 0.246397,0.104742 0.357143,0.178572 0.09003,0.06002 0.186759,0.29216 0.357143,0.178571 0.420207,-0.280138 0.382204,-0.432327 0.535714,-0.892857 0.05952,-0.178571 0.147626,-0.350044 0.178571,-0.535714 0.04893,-0.29357 0,-0.595238 0,-0.892857 0,-0.02029 0,0.118762 0,0.357143 0,0.184735 -0.04209,0.246812 0.178572,0.357142 0.05324,0.02662 0.125331,-0.02662 0.178571,0 0.07529,0.03765 0.09871,0.151952 0.178572,0.178572 0.112938,0.03765 0.241649,-0.02887 0.357142,0 0.129126,0.03228 0.230874,0.136482 0.357143,0.178571 C 49.101811,18.057746 49.090982,18 49.821429,18 c 0.238095,0 0.47619,0 0.714285,0 0.05952,0 0.178572,-0.05952 0.178572,0 0,0.05952 -0.119048,0 -0.178572,0"
         id="path4054"
         inkscape:connector-curvature="0"
         transform="matrix(0.66662862,0,0,0.95388928,8.0496186,907.06055)" />
      <path
         style="fill:none;stroke:#000000;stroke-width:1px;stroke-linecap:butt;stroke-linejoin:miter;stroke-opacity:1"
         d="m 56.071429,18 c 0.702921,-1.303926 0.211943,-0.468971 -0.178572,-1.25 -0.05324,-0.10648 0.05324,-0.250664 0,-0.357143 -0.02356,-0.04713 -0.250478,0.03556 -0.357143,0 -0.07431,-0.02477 -0.37434,-0.259259 -0.535714,-0.178572 -0.07529,0.03765 -0.10853,0.131878 -0.178571,0.178572 -0.110746,0.07383 -0.297619,0.05952 -0.357143,0.178571 -0.07986,0.159719 0,0.357143 0,0.535715 0,0.119047 0,0.238095 0,0.357142 0,0.270832 -0.03996,1.188817 0,1.428572 0.03094,0.18567 0.132919,0.353103 0.178571,0.535714 0.01444,0.05775 -0.02662,0.125332 0,0.178572 0.371586,0.743171 -0.01233,-0.1909 0.357143,0.178571 0.08418,0.08418 -0.08418,0.272964 0,0.357143 0.04209,0.04209 0.119048,0 0.178572,0 0.05952,0 0.119047,0 0.178571,0 0.05952,0 0.136482,0.04209 0.178571,0 0.09412,-0.09411 0.104742,-0.246398 0.178572,-0.357143 0.04669,-0.07004 0.151951,-0.09871 0.178571,-0.178571 0.03765,-0.112939 0,-0.238096 0,-0.357143 0,-0.05952 0.02662,-0.125332 0,-0.178572 -0.03765,-0.07529 -0.119047,-0.119047 -0.178571,-0.178571 1.239937,-4e-6 1.045982,0.255203 0.357143,-0.892857 z"
         id="path4056"
         inkscape:connector-curvature="0"
         transform="matrix(0.66662862,0,0,0.95388928,8.0496186,907.06055)" />
      <path
         style="fill:none;stroke:#000000;stroke-width:1px;stroke-linecap:butt;stroke-linejoin:miter;stroke-opacity:1"
         d="m 57.142857,18.714285 c 0.535715,0 1.071429,0 1.607143,0 0.69758,0 0.01885,-0.05324 0.714286,0.178572 0.169408,0.05647 0.362474,-0.04331 0.535714,0 0.129125,0.03228 0.230874,0.136482 0.357143,0.178571 0.10075,0.03358 0.418374,0 0.535714,0 0.05952,0 0.136482,0.04209 0.178572,0 0.04209,-0.04209 -0.04209,-0.136481 0,-0.178571 0.04209,-0.04209 0.151951,0.05324 0.178571,0 0.05324,-0.10648 0,-0.238095 0,-0.357143 0,-0.119048 0,-0.238095 0,-0.357143 0,-0.05952 0.04209,-0.136482 0,-0.178571 -0.369471,-0.369471 0.01444,0.5646 -0.357143,-0.178572 -0.119047,-0.238095 0.178572,-0.178571 -0.178571,-0.178571"
         id="path4058"
         inkscape:connector-curvature="0"
         transform="matrix(0.66662862,0,0,0.95388928,8.0496186,907.06055)" />
      <path
         style="fill:none;stroke:#000000;stroke-width:1px;stroke-linecap:butt;stroke-linejoin:miter;stroke-opacity:1"
         d="m 64.285714,18.714285 c 0.238096,0.119048 0.476191,0.238096 0.714286,0.357143 0.05952,0 0.122102,-0.01882 0.178572,0 0.126269,0.04209 0.230873,0.136482 0.357142,0.178572 0.116547,0.03885 0.857927,0 1.071429,0 0.05952,0 0.125332,-0.02662 0.178571,0 0.150585,0.07529 0.193811,0.31631 0.357143,0.357143 0.17324,0.04331 0.357143,0 0.535715,0 0.416666,0 0.833333,0 1.25,0 0.05952,0 -0.238096,0 -0.178572,0 0.04243,0 0.674263,0.02001 0.714286,0 0.09922,-0.04961 0.299564,-0.357143 0.357143,-0.357143 0.05952,0 0.05952,0.178571 0,0.178571 -0.05952,0 -0.04209,-0.136482 0,-0.178571 0.0072,-0.0072 0.648707,0 0.714285,0"
         id="path4060"
         inkscape:connector-curvature="0"
         transform="matrix(0.66662862,0,0,0.95388928,8.0496186,907.06055)" />
      <path
         style="fill:none;stroke:#000000;stroke-width:1px;stroke-linecap:butt;stroke-linejoin:miter;stroke-opacity:1"
         d="m 44.464286,10.5 c 1.395672,0 0.493211,0.210448 1.25,-0.357143 0.323872,-0.2429043 0.495588,-0.09832 0.714286,-0.5357144 0.05324,-0.1064794 -0.03765,-0.2442044 0,-0.3571429 0.220661,-0.6619833 0.178571,0.2176699 0.178571,-0.3571428 0,-0.059524 0.02662,-0.2318112 0,-0.1785714 -0.08418,0.1683587 -0.108664,0.3609463 -0.178571,0.5357142 C 46.37914,9.3735793 46.25,9.4740433 46.25,9.6071426 c 0,0.3989584 0.422195,1.3044254 0.535714,1.6071424 0.06609,0.176246 0.08518,0.372285 0.178572,0.535715 0.408913,0.715598 0.472375,0.672059 1.071428,1.071428 0.178572,0.119048 0.336449,0.277437 0.535715,0.357143 0.110533,0.04421 0.238095,0 0.357143,0 0.178571,0 0.357142,0 0.535714,0 0.297619,0 0.599287,0.04893 0.892857,0 0.829888,-0.138315 2.381125,-0.7805 3.035714,-1.071428 1.119598,-0.497599 1.73298,-0.833477 2.678572,-1.607143 0.798465,-0.6532899 0.714285,-0.428896 0.714285,-1.0714288 0,-0.1190476 0,-0.2380953 0,-0.3571429 0,-0.059524 0,-0.2380952 0,-0.1785714 0,0.1785714 0.05647,0.3663065 0,0.5357143 -0.01882,0.056469 -0.159748,-0.056469 -0.178571,0 -0.05647,0.1694077 0.03502,0.3606106 0,0.5357143 -0.0261,0.1305145 -0.119048,0.2380955 -0.178571,0.3571425 -0.158731,0.317461 -0.28359,0.525089 -0.357143,0.892857 -0.02335,0.116736 0,0.238096 0,0.357143 0,0.05952 -0.05952,0.178572 0,0.178572 0.188231,0 0.379096,-0.07416 0.535714,-0.178572 0.04953,-0.03302 0,-0.119047 0,-0.178571 0,-0.05952 0,-0.119048 0,-0.178572 0,-0.119047 0,-0.238095 0,-0.357142 0,-0.05952 0.04209,-0.136482 0,-0.178572 -0.04209,-0.04209 -0.119048,0 -0.178571,0 -0.05952,0 -0.119048,0 -0.178572,0 -0.238095,0 -0.47619,0 -0.714286,0 -0.357142,0 -0.714285,0 -1.071428,0 -0.178572,0 -0.358235,-0.01972 -0.535714,0 -0.359855,0.03998 -0.71028,0.152775 -1.071429,0.178572 -0.47498,0.03393 -0.952381,0 -1.428571,0 -0.654762,0 -1.309524,0 -1.964286,0 -0.178572,0 -0.357143,0 -0.535714,0 -0.05952,0 -0.136482,-0.04209 -0.178572,0 -0.04209,0.04209 -0.04209,0.136481 0,0.178571 0.04209,0.04209 0.120825,-0.01444 0.178572,0 0.18261,0.04565 0.348417,0.159842 0.535714,0.178571 0.414599,0.04146 0.833333,0 1.25,0 0.654762,0 1.309524,0 1.964286,0 0.297619,0 0.597058,-0.03287 0.892857,0 0.243922,0.0271 0.470364,0.151469 0.714285,0.178572 0.295799,0.03287 0.59823,-0.04209 0.892858,0 0.131761,0.01882 0.228017,0.14629 0.357142,0.178571 0.115494,0.02887 0.238096,0 0.357143,0 0.05952,0 0.220661,0.04209 0.178572,0 -0.09412,-0.09411 -0.263028,-0.08446 -0.357143,-0.178571 -0.219907,-0.219906 0.544965,-0.357143 -0.357143,-0.357143 -0.05952,0 0,0.119048 0,0.178571 0,0.05952 0,0.119048 0,0.178572 0,0.05952 -0.04209,0.136482 0,0.178571 0.04209,0.04209 0.125332,-0.02662 0.178571,0 0.07529,0.03765 0.10853,0.131877 0.178572,0.178572 0.344887,0.229925 0.4863,0.182904 0.892857,0.357143 0.244675,0.10486 0.459314,0.280651 0.714286,0.357142 0.346799,0.10404 0.71639,0.107564 1.071428,0.178572 1.253774,0.250755 0.164778,0.178571 1.607143,0.178571 0.885002,0 0.87178,0.1331 1.607143,-0.357143 0.441322,-0.294214 0.357143,-0.292804 0.357143,-0.714285 0,-0.311671 0.02662,-0.125332 -0.178572,-0.535715 -0.05952,-0.119047 -0.06783,-0.283312 -0.178571,-0.357142 -0.07288,-0.04859 -0.787905,0.05248 -0.892857,0 -0.07529,-0.03765 -0.103279,-0.140926 -0.178572,-0.178572 -0.281236,-0.140618 -0.178571,0.231542 -0.178571,0.357143 0,0.05952 -0.04209,0.136482 0,0.178571 0.04209,0.04209 0.119048,0 0.178571,0 0.217979,0 0.411782,0.06929 0.535715,-0.178571 0.05324,-0.106479 -0.05324,-0.250663 0,-0.357143 C 61.109075,10.603279 61.25,10.584179 61.25,10.5 c 0,-0.1331 -0.04547,-0.357143 -0.178571,-0.357143 -0.119048,0 -0.03765,0.244204 0,0.357143 0.02662,0.07986 0.119047,0.119047 0.178571,0.178571 0.178572,0.178572 0.384192,0.333684 0.535714,0.535714 0.03572,0.04762 -0.02662,0.125332 0,0.178572 0.408626,0.817251 -0.07401,-0.757753 0.357143,0.535714 0.01882,0.05647 -0.04209,0.136482 0,0.178572 0.04209,0.04209 0.125332,-0.02662 0.178572,0 0.04938,0.02469 0.307761,0.332452 0.357143,0.357142 0.05324,0.02662 0.125331,-0.02662 0.178571,0 0.07529,0.03765 0.103279,0.140926 0.178571,0.178572 0.05324,0.02662 0.119048,0 0.178572,0 0.05952,0 0.136482,0.04209 0.178571,0 0.04209,-0.04209 0,-0.119048 0,-0.178572 0,-0.319798 0.08841,-0.804449 -0.178571,-1.071428 -0.04209,-0.04209 -0.04209,0.136482 0,0.178571 0.04209,0.04209 0.129044,-0.03302 0.178571,0 0.772374,0.772374 -0.04731,0.02799 0.714286,0.535715 0.07004,0.04669 0.103279,0.140925 0.178571,0.178571 0.05324,0.02662 0.136482,-0.04209 0.178572,0 0.04209,0.04209 -0.05324,0.151952 0,0.178571 0.159719,0.07986 0.357143,0 0.535714,0 0.05952,0 0.125332,0.02662 0.178572,0 0.743171,-0.371585 -0.1909,0.01233 0.178571,-0.357142 0.04209,-0.04209 0.119048,0 0.178571,0 0.05952,0 0.119048,0 0.178572,0 0.416667,0 0.833333,0 1.25,0 0.117307,0 0.672294,0.02099 0.714286,0 0.05324,-0.02662 -0.05324,-0.151952 0,-0.178572 0.0759,-0.03795 0.743214,0 0.892857,0 0.773809,0 1.547619,0 2.321428,0"
         id="path4062"
         inkscape:connector-curvature="0"
         transform="matrix(0.66662862,0,0,0.95388928,8.0496186,907.06055)" />
    </g>
  </g>
</svg>
