<?xml version="1.0" encoding="UTF-8" standalone="no"?>
<!-- Created with Inkscape (http://www.inkscape.org/) -->

<svg
   xmlns:dc="http://purl.org/dc/elements/1.1/"
   xmlns:cc="http://creativecommons.org/ns#"
   xmlns:rdf="http://www.w3.org/1999/02/22-rdf-syntax-ns#"
   xmlns:svg="http://www.w3.org/2000/svg"
   xmlns="http://www.w3.org/2000/svg"
   xmlns:sodipodi="http://sodipodi.sourceforge.net/DTD/sodipodi-0.dtd"
   xmlns:inkscape="http://www.inkscape.org/namespaces/inkscape"
   width="128"
   height="128"
   id="svg2"
   version="1.1"
   inkscape:version="0.48.5 r10040"
   sodipodi:docname="polls_icon.svg">
  <defs
     id="defs4" />
  <sodipodi:namedview
     id="base"
     pagecolor="#ffffff"
     bordercolor="#666666"
     borderopacity="1.0"
     inkscape:pageopacity="0.0"
     inkscape:pageshadow="2"
     inkscape:zoom="2.8"
     inkscape:cx="42.1553"
     inkscape:cy="45.512023"
     inkscape:document-units="px"
     inkscape:current-layer="layer1"
     showgrid="false"
     inkscape:window-width="1536"
     inkscape:window-height="803"
     inkscape:window-x="-8"
     inkscape:window-y="-8"
     inkscape:window-maximized="1" />
  <metadata
     id="metadata7">
    <rdf:RDF>
      <cc:Work
         rdf:about="">
        <dc:format>image/svg+xml</dc:format>
        <dc:type
           rdf:resource="http://purl.org/dc/dcmitype/StillImage" />
        <dc:title />
      </cc:Work>
    </rdf:RDF>
  </metadata>
  <g
     inkscape:label="Layer 1"
     inkscape:groupmode="layer"
     id="layer1"
     transform="translate(0,-924.36218)">
    <rect
       style="fill:#ffffff;stroke:#000000;stroke-width:1;stroke-linecap:round;stroke-linejoin:miter;stroke-miterlimit:4;stroke-opacity:1;stroke-dasharray:none"
       id="rect2985"
       width="91.166267"
       height="117.1777"
       x="17.930208"
       y="5.7715421"
       transform="translate(0,924.36218)" />
    <rect
       y="5.7715421"
       x="17.930208"
       height="117.1777"
       width="91.166267"
       id="rect2987"
       style="fill:#ffeeaa;stroke:#000000;stroke-width:3;stroke-linecap:round;stroke-linejoin:miter;stroke-miterlimit:4;stroke-opacity:1;stroke-dasharray:none"
       transform="translate(0,924.36218)" />
    <path
       style="fill:#ffffff;stroke:#000000;stroke-width:1;stroke-linecap:round;stroke-linejoin:miter;stroke-miterlimit:4;stroke-opacity:1;stroke-dasharray:none"
       id="path2999"
       d="m 34.661616,26.404756 c 0.461774,-0.301619 1.035785,-0.793403 1.621763,-0.624759 0.280891,0.09456 0.328404,0.441419 0.43753,0.68334 0.20334,0.447916 0.423568,0.886445 0.702953,1.292164 0.206303,0.359324 0.515867,0.560874 0.889909,0.709695 0.651751,0.197811 0.80129,0.0051 1.273103,-0.354712 0.355432,-0.205468 0.542922,-0.569837 0.803056,-0.861868 0.07026,-0.09326 0.06592,-0.09994 0.311156,0.02056 0.05554,0.02729 0.06045,0.109423 0.102667,0.154668 0.168492,0.180582 0.410019,0.304313 0.61397,0.438217 0.549643,0.266819 1.166881,0.391748 1.775287,0.41587 0.409645,0.02078 0.7845,-0.152318 1.177694,-0.235237 0.841506,-0.106753 1.691274,-0.125279 2.536508,-0.19193 0.728677,0.05695 1.438095,-0.202742 2.159627,-0.189104 0.897885,0.192612 1.792402,0.399645 2.686487,0.609301 1.796213,0.39404 3.645124,0.468043 5.477923,0.506434 0.817611,-0.01214 1.637849,0.01037 2.45498,-0.03116 0.467471,-0.02376 0.928456,-0.09829 1.39547,-0.126855 0.343957,-0.06803 0.677481,-0.06126 1.020497,-0.02124 0.819551,0.08123 1.637941,0.0092 2.452738,-0.07886 0.584027,-0.09278 1.154536,-0.242268 1.743514,-0.301024 0.54378,-0.0458 1.081753,-0.0085 1.611853,-0.152077 0.436548,-0.129407 0.855986,-0.05868 1.28612,0.04207 0.36536,0.248498 0.791084,0.347387 1.203862,0.485545 0.845751,0.241234 1.723035,0.27191 2.595605,0.309949 0.715378,0.02553 1.431272,0.03085 2.14704,0.03083 0.937694,0.06348 1.868893,0.197066 2.804392,0.288671 2.439062,0.201558 4.885227,0.148381 7.328569,0.08872 0,0 -0.201591,0.147214 -0.201591,0.147214 l 0,0 c -2.444277,0.05904 -4.891409,0.111831 -7.331338,-0.09049 -0.935189,-0.09203 -1.866019,-0.225542 -2.80387,-0.286021 -0.715839,-2.46e-4 -1.4318,-0.0061 -2.147232,-0.03206 -0.874256,-0.03872 -1.753331,-0.07084 -2.600041,-0.315388 -0.412476,-0.137165 -0.834918,-0.241401 -1.202734,-0.483538 -0.427497,-0.101013 -0.846069,-0.161237 -1.278662,-0.03223 -0.531387,0.137409 -1.070587,0.101136 -1.614263,0.148935 -0.588375,0.06124 -1.158856,0.211566 -1.743182,0.300967 -0.815928,0.08817 -1.636169,0.156802 -2.456532,0.07455 -0.341434,-0.04218 -0.675509,-0.03583 -1.017416,0.02468 -0.466717,0.02998 -0.928141,0.102558 -1.395476,0.12564 -0.817271,0.04037 -1.637477,0.01889 -2.455206,0.02993 -1.83404,-0.0401 -3.684254,-0.114117 -5.481378,-0.510393 -0.893076,-0.208727 -1.785894,-0.418773 -2.684095,-0.604284 -0.721104,-0.0038 -1.430003,0.242551 -2.157933,0.190672 -0.844825,0.06525 -1.694473,0.08372 -2.534916,0.19498 -0.393104,0.08697 -0.770826,0.254535 -1.181467,0.229978 -0.611841,-0.0297 -1.231806,-0.153185 -1.78289,-0.427046 -0.120709,-0.07917 -0.742202,-0.452052 -0.724134,-0.604879 0.01208,-0.102135 0.102945,-0.178079 0.154906,-0.266834 0.0048,-0.0083 -0.009,0.01688 -0.01351,0.02532 -0.143215,0.135803 0.05346,-0.06207 -0.110023,0.159721 -0.195327,0.264994 -0.424749,0.510475 -0.692132,0.705845 -0.525711,0.402177 -1.031548,0.837126 -1.716452,0.588264 -0.376889,-0.152263 -0.689072,-0.360575 -0.897673,-0.722276 -0.280041,-0.407066 -0.501163,-0.846824 -0.705318,-1.296003 -0.106453,-0.235692 -0.150258,-0.575728 -0.425789,-0.664426 -0.46997,-0.118135 -0.811722,0.120501 -1.179211,0.390132 0,0 -0.234712,0.09184 -0.234712,0.09184 z"
       inkscape:connector-curvature="0"
       transform="translate(0,924.36218)" />
    <path
       style="fill:#ffffff;stroke:#000000;stroke-width:1;stroke-linecap:round;stroke-linejoin:miter;stroke-miterlimit:4;stroke-opacity:1;stroke-dasharray:none"
       d="m 38.9375,960.6071 c -0.175036,0.0345 -0.339652,0.38915 -0.375,0.46875 -0.366632,0.6287 -0.527708,1.32823 -0.875,1.96875 -0.431021,0.95021 -0.950114,1.90542 -1.71875,2.625 -0.202987,0.17383 -0.369408,0.38602 -0.59375,0.53125 0.286619,-0.18644 0.546971,-0.39603 0.8125,-0.625 0.766243,-0.72426 1.288781,-1.67242 1.71875,-2.625 0.348208,-0.63974 0.502901,-1.37452 0.875,-2 -0.01,0.007 0.0493,-0.0613 0.09375,-0.125 -0.01494,0.0287 0.02584,0.0791 0.03125,0.34375 -0.09528,1.46349 -0.278687,2.89442 -0.5,4.34375 -0.07448,0.80643 -0.22126,1.62366 -0.1875,2.4375 0.0041,0.098 0.1112,1.03127 0.125,1.15625 0.19298,1.00676 0.668797,1.89939 1.21875,2.75 0.583107,0.81731 1.091063,0.90412 1.8125,0.125 0.505364,-0.7895 0.50928,-1.75079 0.5625,-2.65625 0.0065,-0.95904 -0.07846,-1.91749 -0.125,-2.875 -0.02784,-0.16632 -0.02704,-0.35168 -0.03125,-0.53125 0.210352,0.0616 0.442021,0.0117 0.65625,0.0625 0.343251,0.0719 0.689346,0.13925 1.03125,0.21875 0.570099,0.071 0.728201,0.0256 1.09375,0.5 0.262821,0.34488 0.528857,0.7917 1,0.8125 0.517774,-0.17519 0.87418,-0.60253 1.3125,-0.90625 0.0673,-0.0466 0.16838,-0.0252 0.25,-0.0312 0.05072,0.0171 0.11669,0.0265 0.15625,0.0625 0.231762,0.21109 0.23176,1.04668 0.28125,1.34375 0.004,0.62333 0.251178,1.14092 0.5625,1.65625 0.335521,0.36888 0.866042,0.4502 1.34375,0.4375 0.77465,-0.27882 1.530775,-0.74094 2.09375,-1.34375 0.221558,-0.29271 0.453866,-0.58993 0.71875,-0.84375 -0.05272,4e-4 -0.105487,-0.013 -0.15625,0 -0.142692,0.0367 -0.694943,0.82028 -0.8125,0.9375 -0.458382,0.48144 -0.994815,0.8734 -1.625,1.09375 -0.468602,0.0196 -1.010948,-0.0485 -1.34375,-0.40625 -0.31011,-0.5128 -0.5579,-1.00472 -0.5625,-1.625 -0.05337,-0.32357 -0.06332,-1.1695 -0.3125,-1.40625 -0.04079,-0.0387 -0.10358,-0.0427 -0.15625,-0.0625 -0.678894,0.0231 -0.994525,0.69962 -1.53125,0.96875 -0.466948,-0.002 -0.740859,-0.47494 -1,-0.8125 -0.36989,-0.48209 -0.51283,-0.4345 -1.09375,-0.5 -0.341818,-0.0801 -0.687806,-0.14815 -1.03125,-0.21875 -0.267565,-0.0728 -0.557278,-0.0167 -0.8125,-0.15625 -0.03649,-0.0489 -0.07106,-0.10156 -0.09375,-0.15625 -0.0035,-0.008 0.0032,-0.0227 0,-0.0312 -0.01092,-0.11486 -0.03101,-0.23645 -0.0625,-0.34375 -0.0083,-0.0281 0.01022,-0.0664 0,-0.0937 6e-4,-0.017 0.01303,-0.0421 0,-0.0312 -0.02878,0.024 -0.06531,0.0373 -0.09375,0.0625 -0.143118,-0.0772 -0.128213,0.0199 -0.125,0.0937 0.0033,0.009 -0.0031,0.022 0,0.0312 -0.0084,0.0121 -0.02412,0.0183 -0.03125,0.0312 -0.05101,0.0927 0.0209,0.29781 0.09375,0.4375 0.02139,0.29108 0.01789,0.57028 0.0625,0.84375 0.04697,0.95659 0.10155,1.91683 0.09375,2.875 -0.05336,0.90084 -0.04926,1.87599 -0.5625,2.65625 -0.09301,0.0967 -0.150287,0.25195 -0.28125,0.28125 -0.495841,0.11085 -0.803154,-0.25971 -1.0625,-0.625 -0.548061,-0.84722 -1.027987,-1.74662 -1.21875,-2.75 -0.0157,-0.14208 -0.1203,-1.03798 -0.125,-1.15625 -0.03245,-0.81282 0.11263,-1.60084 0.1875,-2.40625 0.221081,-1.45073 0.40554,-2.91012 0.5,-4.375 -0.0031,-0.11413 0.03549,-0.25115 -0.03125,-0.34375 -0.02808,-0.039 -0.03332,-0.0798 -0.0625,-0.0937 -0.02918,-0.014 -0.06458,-0.006 -0.09375,0 z m 13.34375,7.28125 c -0.02621,0.0381 -0.03767,0.0862 -0.0625,0.125 0.07124,0.21229 0.2571,0.29415 0.46875,0.28125 0.170452,-10e-5 0.405654,-0.20287 0.59375,-0.3125 0.0052,-0.002 -0.0052,-0.029 0,-0.0312 -0.03332,0.0155 -0.06109,0.0453 -0.09375,0.0625 -0.0898,0.0474 -0.182881,0.0954 -0.28125,0.125 -0.208933,0.0274 -0.39813,-0.043 -0.46875,-0.25 -0.05233,0.003 -0.103529,-4e-4 -0.15625,0 z M 35.375,966.20085 c -0.511063,0.33083 -1.109916,0.48844 -1.6875,0.65625 l -0.21875,0.15625 c 0.694595,-0.15444 1.328407,-0.43661 1.90625,-0.8125 z m 26.34375,-2.03125 c -0.114122,0.064 -0.237316,0.1114 -0.34375,0.1875 -0.528377,0.37764 -0.762435,1.08615 -1.0625,1.625 -0.509083,1.01018 -1.03318,2.00076 -1.5625,3 -0.164255,0.26078 -0.327018,0.52619 -0.5,0.78125 -0.06302,0.0929 -0.16212,0.153 -0.21875,0.25 -0.0069,0.0119 0.07587,0.0293 0.0625,0.0312 0.394895,-0.29139 0.612073,-0.73908 0.875,-1.15625 0.52675,-1.00118 1.084968,-2.02037 1.59375,-3.03125 0.07801,-0.15869 0.13679,-0.31207 0.21875,-0.46875 0.14426,-0.27577 0.27674,-0.50716 0.46875,-0.75 0.08856,-0.11199 0.2156,-0.1766 0.3125,-0.28125 0.03098,0.0316 0.07379,0.0548 0.09375,0.0937 0.15215,0.29727 0.17953,0.68007 0.25,1 0.09739,0.44217 0.109431,0.47229 0.25,0.90625 0.203858,0.61963 0.358445,1.2709 0.78125,1.78125 0.387775,0.35616 0.815461,0.56085 1.34375,0.53125 0.24319,0.01 0.4285,-0.13059 0.59375,-0.25 -0.07881,0.0315 -0.190581,0.0383 -0.40625,0.0937 -0.523458,0.0393 -0.926058,-0.18086 -1.3125,-0.53125 -0.422266,-0.50649 -0.577009,-1.13446 -0.78125,-1.75 -0.141566,-0.43814 -0.15169,-0.45996 -0.25,-0.90625 -0.0711,-0.32277 -0.09316,-0.70137 -0.25,-1 -0.03238,-0.0617 -0.11202,-0.10245 -0.15625,-0.15625 z m 3.15625,4.25 c 0.04867,-0.0195 0.117628,-0.0833 0.1875,-0.125 -0.0094,-6e-5 -0.02186,8e-4 -0.03125,0 -0.05166,0.0391 -0.09484,0.0806 -0.15625,0.125 z m 0.1875,-0.125 c 0.0083,-0.005 0.02219,0.005 0.03125,0 0.0484,-0.003 0.108134,-0.0201 0.15625,-0.0312 0.01809,-0.0192 0.02599,-0.0503 0.03125,-0.0625 -0.02451,0.001 -0.06529,0.0172 -0.09375,0.0312 -0.04761,0.029 -0.05935,0.0104 -0.09375,0.0312 -0.01056,0.008 -0.02024,0.0231 -0.03125,0.0312 z m 0.1875,-0.0312 c -0.03618,0.0384 -0.07224,0.0634 -0.09375,0.0937 0.345827,0.32768 0.470556,0.57751 0.96875,0.40625 0.353103,-0.16422 0.56729,-0.41672 0.75,-0.6875 0.05956,0.24613 0.13363,0.4743 0.21875,0.71875 0.04662,0.0713 0.09012,0.16505 0.15625,0.21875 0.06498,0.0528 0.13797,0.0719 0.21875,0.0937 0.530332,0.14378 0.954451,-0.23768 1.375,-0.5 0.612443,-0.37221 1.137805,-0.91238 1.75,-1.28125 0.04216,-0.0281 0.08115,-0.0385 0.125,-0.0625 -0.03007,0.0195 -0.06515,0.0401 -0.0625,0.0625 0.0047,0.0397 0.09177,0.009 0.125,0.0312 0.112925,0.0752 0.112745,0.15735 0.25,0.21875 0.161245,0.0233 0.285338,-0.0231 0.40625,-0.0937 0.190347,-0.11118 0.33667,-0.29271 0.53125,-0.40625 -0.01858,0.0187 -0.05745,0.0655 -0.03125,0.0625 0.153584,-0.0167 0.285777,-0.0959 0.4375,-0.125 0.216727,-0.0415 0.436368,-0.062 0.65625,-0.0625 0.333982,-0.024 0.646148,-0.005 0.96875,-0.0937 l 0.21875,-0.15625 c -0.322913,0.087 -0.633009,0.0747 -0.96875,0.0937 -0.529025,-0.005 -1.042492,0.095 -1.5,0.375 -0.02952,0.0183 -0.230212,0.15538 -0.3125,0.25 -0.07067,0.01 -0.21965,0.089 -0.21875,0.0312 -0.44052,-0.16706 -0.166056,-0.54354 -0.875,-0.0312 -0.607804,0.37583 -1.106998,0.90794 -1.71875,1.28125 -0.290857,0.22062 -0.567441,0.37015 -0.9375,0.28125 -0.07724,-0.0185 -0.15626,-0.0447 -0.21875,-0.0937 -0.06539,-0.0513 -0.11061,-0.118 -0.15625,-0.1875 -0.103852,-0.2978 -0.18512,-0.60537 -0.25,-0.90625 0.08795,-0.18248 0.183867,-0.37985 0.25,-0.59375 0.119815,-0.58058 0.24828,-1.18441 0.1875,-1.78125 -0.113212,-0.31206 -0.275216,-0.28536 -0.4375,-0.125 0.102064,-8.9e-4 0.279912,0.15254 0.21875,0.25 0.05637,0.59431 -0.09682,1.1726 -0.21875,1.75 -0.01401,0.0446 -0.04746,0.0805 -0.0625,0.125 -0.06673,-0.43232 -0.09122,-0.89122 -0.0625,-1.34375 0.02468,-0.12331 0.03027,-0.25344 0.0625,-0.375 0.02395,-0.0903 0.09575,-0.1566 0.09375,-0.25 -0.001,-0.0479 -0.09735,-0.0459 -0.09375,-0.0937 -0.04853,0.057 -0.07778,0.11669 -0.125,0.1875 -0.0842,0.12628 -0.13387,0.54069 -0.15625,0.65625 -0.03424,0.57372 0.01123,1.11264 0.125,1.65625 -0.132432,0.28284 -0.300306,0.56887 -0.53125,0.75 -0.492912,0.19132 -0.592839,-0.0466 -0.9375,-0.375 -0.03893,0.006 -0.08617,0.0222 -0.125,0.0312 z m -7.15625,1.78125 c -0.07311,0.013 -0.27812,9.7e-4 -0.34375,0 -0.514486,-0.2287 -0.978693,-0.57491 -1.40625,-0.9375 -0.161546,-0.0969 -0.297684,-0.21675 -0.5,-0.21875 -0.448458,-0.003 -0.837808,0.41641 -1.25,0.53125 -0.565508,0.15813 -0.726758,0.27132 -0.90625,-0.34375 -0.04509,-0.35542 0.0677,-0.819 -0.125,-1.125 -0.112082,0.0234 -0.06761,0.0181 -0.125,0.0312 -0.03799,0.0344 -0.07051,0.0665 -0.09375,0.0937 0.178426,0.30146 0.07932,0.74582 0.125,1.09375 0.183577,0.61897 0.325186,0.56298 0.90625,0.40625 0.418136,-0.11069 0.800452,-0.52325 1.25,-0.53125 0.204173,-0.004 0.366469,0.091 0.53125,0.1875 0.429099,0.36256 0.861553,0.70435 1.375,0.9375 0.02301,0.002 0.30368,0.0502 0.34375,0.0312 0.08211,-0.0387 0.149588,-0.10521 0.21875,-0.15625 z m -4.65625,-2.0625 c 0.03799,-0.0344 0.06701,-0.0641 0.03125,-0.0625 -0.04823,0.002 -0.09239,0.0269 -0.15625,0.0625 0.01702,-0.004 0.0699,0.0126 0.125,0 z M 79.5,965.70085 c -0.08376,0.0188 -0.487632,-0.001 -0.5,0.1875 -0.0018,0.027 0.01517,0.0574 0.03125,0.0937 0.03576,0.0805 0.52938,0.0575 0.59375,0.0625 0.491426,0.0224 0.920254,0.27182 1.375,0.4375 0.107862,0.0322 0.235889,0.0616 0.34375,0.0937 l 0.1875,-0.15625 c -0.107568,-0.0318 -0.204932,-0.0619 -0.3125,-0.0937 -0.456725,-0.16472 -0.913671,-0.38205 -1.40625,-0.40625 -0.07847,-0.005 -0.255311,-0.0424 -0.40625,-0.0625 1.285446,-0.0537 2.567584,0.12574 3.84375,0.25 1.31213,0.21623 2.657935,0.46759 3.84375,1.09375 l 0.21875,-0.125 c -1.186797,-0.63117 -2.560216,-0.9066 -3.875,-1.125 -1.308646,-0.13095 -2.619207,-0.3112 -3.9375,-0.25 z m -0.125,0.0937 c 0.01684,-0.002 -0.0219,0.0248 -0.03125,0.0312 -0.02715,-0.002 -0.0804,-0.001 -0.09375,0 0.04017,-0.009 0.105936,-0.0292 0.125,-0.0312 z"
       id="path3003"
       inkscape:connector-curvature="0" />
    <path
       style="fill:#ffffff;stroke:#000000;stroke-width:1;stroke-linecap:round;stroke-linejoin:miter;stroke-miterlimit:4;stroke-opacity:1;stroke-dasharray:none"
       d="m 73.086136,974.58426 c -0.03415,-0.0147 -0.04983,-0.001 -0.09375,0.0312 -0.05104,0.038 -0.110912,0.0803 -0.15625,0.125 0.051,0.0102 0.13164,0.0399 0.15625,0.0937 0.152926,0.33462 0.12472,0.7765 0.15625,1.125 -0.02215,0.8359 -0.08246,1.67022 -0.1875,2.5 -0.05112,-0.2198 -0.08716,-0.43536 -0.1875,-1.09375 -0.124345,-0.8159 -0.351247,-1.73949 0.09375,-2.5 -0.03791,-0.0388 -0.05242,-0.0733 -0.0625,-0.0937 -0.05934,0.0603 -0.126603,0.12907 -0.1875,0.1875 -0.440598,0.76685 -0.188165,1.68054 -0.0625,2.5 0.146922,0.95808 0.185241,1.14502 0.3125,1.59375 -0.109959,0.66984 -0.249286,1.35222 -0.46875,2 -0.180919,0.48761 -0.387948,0.9582 -0.65625,1.40625 -0.04127,0.0689 -0.09283,0.11389 -0.125,0.1875 -0.0078,0.0178 0.04143,0.0148 0.03125,0.0312 0.509724,-0.41538 0.753454,-1.16339 0.96875,-1.75 0.155254,-0.46086 0.277738,-0.93345 0.375,-1.40625 0.02156,0.0771 0.0056,0.0631 0.03125,0.15625 0.819422,2.11522 1.703011,4.36339 3.03125,6.21875 0.175043,0.24488 0.44701,0.77577 0.84375,0.5625 0.08366,-0.045 0.130579,-0.11031 0.1875,-0.15625 -0.392924,0.22732 -0.630957,-0.2779 -0.8125,-0.53125 -1.328224,-1.8512 -2.214174,-4.1064 -3.03125,-6.21875 -0.100433,-0.3657 -0.107638,-0.42202 -0.15625,-0.59375 0.168127,-1.02625 0.253525,-2.05379 0.28125,-3.09375 -0.0029,-0.0374 -0.04221,-1.17856 -0.28125,-1.28125 z m 4,11.71875 c 0.23498,-0.18966 0.279109,-0.39873 0.34375,-0.75 0.05003,-0.97453 -0.04614,-1.94191 -0.1875,-2.90625 0.02038,-0.012 -0.08027,-0.37084 -0.03125,-0.40625 -0.07183,0.0337 -0.153649,0.0523 -0.21875,0.0937 -0.04935,0.0314 0.05127,0.4275 0.03125,0.4375 0.141183,0.96171 0.24187,1.93444 0.1875,2.90625 -0.02086,0.1076 -0.03048,0.20768 -0.0625,0.3125 -0.03003,0.0983 -0.10659,0.18011 -0.125,0.28125 -0.0042,0.023 0.08274,0.0195 0.0625,0.0312 z m 0.125,-4.0625 c 0.0198,-0.0143 0.007,0.0654 0.03125,0.0625 0.110615,-0.013 0.59995,-0.21659 0.6875,-0.25 0.446395,-0.21128 0.895863,-0.26036 1.375,-0.1875 0.555336,0.0725 1.099257,0.15775 1.65625,0.21875 0.546105,0.0467 1.11063,0.002 1.65625,0.0312 0.32256,-0.0413 0.642737,-0.0752 0.96875,-0.0937 0.09978,-0.004 0.18147,-0.0276 0.28125,-0.0312 l 0.21875,-0.15625 c -0.09985,0.003 -0.21265,0.0279 -0.3125,0.0312 -0.325624,0.0171 -0.616626,0.0429 -0.9375,0.0937 -0.544455,-0.0367 -1.110689,0.0186 -1.65625,-0.0312 -0.556734,-0.0608 -1.101138,-0.11604 -1.65625,-0.1875 -0.481316,-0.0758 -0.956648,-0.0575 -1.40625,0.15625 -0.299096,0.11536 -0.606458,0.20303 -0.90625,0.34375 z m -4.40625,-7.46875 c 0.0099,-0.01 0.02122,-0.0214 0.03125,-0.0312 -0.03264,-0.007 -0.04917,-0.005 -0.03125,0.0312 z m -30.0625,5.875 c -0.107228,0.0269 -0.194059,0.0852 -0.28125,0.15625 -0.209848,0.2604 -0.453035,0.45613 -0.71875,0.65625 0.346497,-0.21178 0.71221,-0.43242 0.96875,-0.75 0.0066,-0.005 0.0235,0.008 0.03125,0 0.0155,-0.0169 -0.01176,-0.0578 0,-0.0625 z m 0,0.0625 c -0.02076,0.0212 -0.05011,0.0525 -0.03125,0.0625 0.108532,0.0575 0.253327,0.0456 0.375,0.0625 0.242427,0.0337 0.476847,0.0565 0.71875,0.0937 0.776136,0.11968 1.567931,0.25328 2.34375,0.375 1.660258,0.27085 0.830414,0.15353 2.40625,0.375 l 0.21875,-0.15625 c -1.575811,-0.2206 -0.777301,-0.10392 -2.4375,-0.375 -0.775611,-0.12176 -1.536665,-0.25467 -2.3125,-0.375 -0.350103,-0.0543 -0.857379,-0.21075 -1.25,-0.125 0.0075,0.02 -0.01049,0.0413 -0.03125,0.0625 z m -1,0.75 c -0.785954,0.42763 -1.605325,0.82204 -2.46875,1.0625 l -0.21875,0.15625 c 0.865975,-0.23583 1.680583,-0.63724 2.46875,-1.0625 0.07736,-0.0453 0.142617,-0.10972 0.21875,-0.15625 z m 26.375,-0.375 c -0.509472,0.0219 -0.99624,0.0857 -1.5,0.125 -1.004938,0.13304 -1.974852,0.37366 -2.90625,0.78125 l -0.21875,0.15625 c 0.930068,-0.40895 1.902491,-0.6451 2.90625,-0.78125 1.005708,-0.0804 2.061821,-0.24613 3.0625,-0.0625 0.538225,0.0675 0.872533,0.50114 1.1875,0.90625 0.145985,0.33634 0.342448,0.5692 0.6875,0.6875 0.08561,-0.0359 0.1448,-0.10546 0.21875,-0.15625 -0.342407,-0.11726 -0.542975,-0.34916 -0.6875,-0.6875 -0.316705,-0.40824 -0.677238,-0.80483 -1.21875,-0.875 -0.500767,-0.0949 -1.021778,-0.11564 -1.53125,-0.0937 z"
       id="path3005"
       inkscape:connector-curvature="0" />
    <path
       style="fill:#ffffff;stroke:#000000;stroke-width:1;stroke-linecap:round;stroke-linejoin:miter;stroke-miterlimit:4;stroke-opacity:1;stroke-dasharray:none"
       d="m 47.441784,991.2321 c -0.152646,0.006 -0.312718,0.0479 -0.4375,0.0625 -1.125174,0.3182 -2.179887,0.85498 -3.3125,1.15625 -0.273132,0.072 -0.498883,0.15735 -0.78125,0.15625 -0.291222,-0.001 -0.581773,-0.18728 -0.875,-0.1875 -0.244199,-0.026 -0.535429,-0.11512 -0.78125,-0.0937 -0.277122,0.0241 -0.554134,0.16058 -0.8125,0.25 -0.883849,0.34446 -1.783361,0.67899 -2.71875,0.84375 l -0.21875,0.15625 c 0.937393,-0.16068 1.864489,-0.50093 2.75,-0.84375 0.631492,-0.29088 0.916536,-0.22803 1.5625,-0.15625 0.293439,7.7e-4 0.583924,0.1827 0.875,0.1875 0.300382,0.005 0.513935,-0.0799 0.8125,-0.15625 1.132949,-0.30013 2.157392,-0.83377 3.28125,-1.15625 0.249103,-0.0309 0.610093,-0.13558 0.84375,0.0312 0.04583,0.0327 0.11225,0.18409 0.125,0.21875 0.148666,0.46521 0.30423,0.92593 0.5625,1.34375 0.132815,0.13704 0.20663,0.16131 0.28125,0.125 0.02486,-0.003 0.05797,-0.0322 0.0625,-0.0625 0.158023,-0.20195 0.16338,-0.7442 0.1875,-0.90625 0.01585,-0.0838 0.0241,-0.0857 0.03125,-0.125 0.04572,0.18484 0.12717,0.36175 0.1875,0.53125 0.310477,0.60833 0.47545,1.32567 0.9375,1.84375 0.605195,0.48041 1.419741,0.079 2.0625,-0.125 0.788157,-0.37029 1.584726,-0.69712 2.375,-1.0625 0.131816,-0.0275 0.259804,5e-5 0.375,0.0625 l 0.1875,-0.15625 c -0.112684,-0.0712 -0.242242,-0.0818 -0.375,-0.0625 -0.788994,0.36792 -1.589706,0.68608 -2.375,1.0625 -0.632373,0.20137 -1.429085,0.61893 -2.03125,0.15625 -0.462043,-0.51313 -0.627228,-1.23988 -0.9375,-1.84375 -0.05352,-0.15098 -0.10729,-0.28497 -0.15625,-0.4375 -0.0342,-0.10655 -0.01675,-0.26254 -0.09375,-0.34375 -0.02934,-0.0309 -0.03746,-0.0473 -0.0625,-0.0625 0.01962,-0.0509 0.05676,-0.11619 0.03125,-0.0937 -0.02415,0.0213 -0.04434,0.0402 -0.0625,0.0625 -0.241788,-0.0852 -0.284159,0.58396 -0.3125,0.6875 -0.03056,0.20786 -0.03043,0.41738 -0.0625,0.625 -0.0019,0.0123 -0.02578,0.0184 -0.03125,0.0312 -0.01243,-0.007 -0.01611,-0.0259 -0.03125,-0.0312 -0.25793,-0.41614 -0.382635,-0.88033 -0.53125,-1.34375 -0.01778,-0.0476 -0.07321,-0.17953 -0.125,-0.21875 -0.115361,-0.0873 -0.253604,-0.13119 -0.40625,-0.125 z m 21.71875,0.1875 -0.21875,0.125 c 0.167824,0.43198 0.400659,0.82549 0.6875,1.1875 0.05199,0.0656 0.08687,0.17192 0.15625,0.21875 0.107976,0.0729 0.254898,0.0746 0.375,0.125 1.19902,0.2921 2.405959,0.20302 3.625,0.1875 0.565764,0.0245 0.875846,0.0454 1.15625,0.5625 l 0.0625,0.15625 0.21875,-0.125 -0.0625,-0.15625 c -0.285546,-0.52597 -0.577975,-0.56887 -1.15625,-0.59375 -1.21696,0.014 -2.457976,0.12991 -3.65625,-0.15625 -0.117716,-0.0469 -0.238151,-0.0862 -0.34375,-0.15625 -0.06979,-0.0463 -0.10417,-0.12193 -0.15625,-0.1875 -0.28624,-0.36037 -0.520361,-0.75705 -0.6875,-1.1875 z m 15.78125,2.4375 c -0.743654,0.1214 -1.496948,0.1645 -2.25,0.1875 -1.019559,-0.0317 -2.045765,0.003 -3.0625,-0.0937 l -0.1875,0.15625 c 1.017099,0.094 2.04284,0.0633 3.0625,0.0937 0.753716,-0.0211 1.505412,-0.0684 2.25,-0.1875 l 0.1875,-0.15625 z"
       id="path3009"
       inkscape:connector-curvature="0" />
    <path
       style="fill:#ffffff;stroke:#000000;stroke-width:1;stroke-linecap:round;stroke-linejoin:miter;stroke-miterlimit:4;stroke-opacity:1;stroke-dasharray:none"
       id="path3015"
       d="m 38.734368,1004.2724 c 1.558972,1.1572 3.307646,2.0511 5.056251,2.8864 1.089062,0.5153 2.249799,0.7815 3.449019,0.8263 1.395605,0.069 2.794257,0.043 4.18988,-0.014 0.79591,-0.037 1.591277,-0.088 2.387506,-0.118 0.490638,-0.023 0.977192,0.054 1.465334,0.098 0.731133,0.019 1.46033,0.058 2.19207,0.03 0.511599,0.018 1.021891,0.041 1.530333,-0.024 0.263976,-0.077 0.525618,-0.1521 0.785232,-0.2414 0.290099,-0.1251 0.631182,-0.1093 0.941872,-0.1187 0.530048,0.01 1.057119,-0.036 1.586196,-0.052 0.888267,-0.092 1.796955,-0.2842 2.633211,-0.6056 0.240125,-0.093 0.480427,-0.1989 0.743208,-0.1578 0.110381,0.017 0.209867,0.1003 0.321462,0.095 0.108642,-0.01 0.211681,-0.05 0.317521,-0.075 1.147271,-0.2771 2.0577,-1.1134 2.967781,-1.8218 0.546467,-0.3891 1.513863,-1.5202 2.267214,-1.3254 0.110962,0.029 0.206987,0.099 0.310481,0.1477 0.431939,0.2029 0.729241,0.6968 1.212601,0.8076 0.0957,0.022 0.196137,0.01 0.294206,0.014 0.09781,2e-4 0.196309,0.012 0.293421,6e-4 0.135755,-0.016 0.47225,-0.129 0.595222,-0.1647 0.323673,-0.094 0.651591,-0.1698 0.978608,-0.2511 0.348951,-0.075 0.57106,0.017 0.821615,0.2423 0.24599,0.235 0.665029,0.1939 0.981947,0.2245 0.74604,0.056 1.495486,0.036 2.243077,0.048 0.417231,-0.044 0.835054,0.026 1.250907,-0.024 0.390362,0.038 0.777838,0.072 1.170658,0.085 0.704625,0.034 1.398296,-0.025 2.087195,-0.163 0.18638,-0.044 0.346857,-0.146 0.52137,-0.2202 0,0 -0.197802,0.1564 -0.197802,0.1564 l 0,0 c -0.173804,0.076 -0.337293,0.1749 -0.524469,0.216 -0.689643,0.1385 -1.385725,0.1897 -2.090485,0.1581 -0.392022,-0.014 -0.778793,-0.053 -1.168869,-0.082 -0.417065,0.041 -0.83455,-0.017 -1.252352,0.021 -0.748092,-0.01 -1.497979,0.01 -2.244442,-0.049 -0.323117,-0.03 -0.741933,0.01 -0.991047,-0.2377 -0.248815,-0.2197 -0.465274,-0.2993 -0.807411,-0.2223 -0.617611,0.1531 -1.235706,0.3938 -1.871792,0.409 -0.09987,-0.01 -0.202374,0 -0.299627,-0.022 -0.48176,-0.1183 -0.779112,-0.6037 -1.212473,-0.8078 -0.546574,-0.2499 -0.688156,-0.2122 -1.160631,0.1479 -0.241411,0.1839 -0.749261,0.6107 -0.974036,0.7976 -1.038455,0.809 -2.098648,1.7393 -3.40135,2.0673 -0.108522,0.022 -0.214972,0.062 -0.325568,0.065 -0.109944,0 -0.208564,-0.075 -0.317613,-0.089 -0.259812,-0.034 -0.499536,0.076 -0.736594,0.1658 -0.839975,0.316 -1.747409,0.5124 -2.638309,0.599 -0.529106,0.017 -1.056392,0.058 -1.586411,0.052 -0.311643,0.01 -0.646318,-0 -0.937516,0.125 -0.259461,0.091 -0.523445,0.1629 -0.788273,0.2371 -0.508833,0.063 -1.019776,0.036 -1.531349,0.022 -0.73238,0.025 -1.462309,-0.011 -2.194075,-0.032 -0.487631,-0.043 -0.973436,-0.1218 -1.463559,-0.096 -0.795895,0.031 -1.590978,0.08 -2.386588,0.1173 -1.396191,0.056 -2.795404,0.081 -4.191556,0.013 -1.201172,-0.05 -2.363593,-0.3169 -3.453897,-0.8353 -1.750084,-0.8374 -3.500432,-1.7327 -5.06112,-2.8914 0,0 0.213816,-0.133 0.213816,-0.133 z"
       inkscape:connector-curvature="0" />
    <path
       style="fill:#ffffff;stroke:#000000;stroke-width:1;stroke-linecap:round;stroke-linejoin:miter;stroke-miterlimit:4;stroke-opacity:1;stroke-dasharray:none"
       d="M 49.5 88.1875 C 49.455014 88.21206 49.420423 88.27893 49.375 88.34375 C 49.436136 88.363101 49.70269 89.32496 49.71875 89.375 C 49.992723 90.531506 50.379462 91.669597 50.875 92.75 C 51.213201 93.410678 51.411015 94.145715 51.9375 94.6875 C 52.255104 94.936951 52.53274 94.925632 52.90625 94.8125 C 53.901304 94.34664 54.763047 93.630879 55.65625 93 L 55.40625 93.09375 C 54.649024 93.628503 53.926736 94.244434 53.09375 94.65625 C 52.727355 94.77404 52.473079 94.803826 52.15625 94.5625 C 51.629711 94.024866 51.432086 93.281894 51.09375 92.625 C 50.598788 91.54531 50.211836 90.405448 49.9375 89.25 C 49.91339 89.174658 49.664704 88.2309 49.5625 88.1875 C 49.540723 88.178252 49.522493 88.17522 49.5 88.1875 z M 49.375 88.34375 C 49.33877 88.33228 49.319097 88.37158 49.28125 88.375 C 49.222869 88.419074 49.182216 88.485813 49.125 88.53125 C 49.198176 88.607379 49.284154 88.47339 49.375 88.34375 z M 49.125 88.53125 C 49.106706 88.512218 49.078678 88.488497 49.0625 88.4375 C 48.358848 88.970208 47.735015 89.594852 47.21875 90.3125 C 47.145019 90.397331 46.605391 91.11421 46.46875 91.15625 C 46.432362 91.16744 46.42266 91.06155 46.375 91.09375 C 46.075949 90.853968 46.11621 90.849684 45.6875 91.1875 C 45.109038 91.807507 44.518439 92.388748 44 93.0625 C 43.793105 93.300884 43.580954 93.542053 43.375 93.78125 C 43.329297 93.834325 43.30663 93.89629 43.25 93.9375 C 43.613627 93.681178 43.916644 93.317989 44.21875 92.96875 C 44.735332 92.293267 45.360733 91.715287 45.9375 91.09375 C 45.976764 91.065731 45.94402 91.080237 45.96875 91.0625 C 45.959328 91.076025 46.14025 91.23754 46.15625 91.25 C 46.202715 91.22214 46.21234 91.28915 46.25 91.28125 C 46.740744 91.178161 47.162789 90.571641 47.46875 90.21875 C 47.932388 89.572542 48.504017 89.02439 49.125 88.53125 z M 43.25 93.9375 C 42.970203 94.141115 42.605636 94.133 42.28125 94.125 C 41.366772 93.920902 40.542181 93.458729 39.75 92.96875 L 39.53125 93.125 C 40.325426 93.617557 41.178322 94.070044 42.09375 94.28125 C 42.553344 94.340502 42.921849 94.168815 43.25 93.9375 z M 78.1875 90.3125 C 78.112885 90.356095 78.053546 90.391524 78 90.4375 C 77.985274 90.441385 77.986805 90.432464 77.96875 90.4375 C 77.614606 90.913445 77.19301 91.370217 76.875 91.875 C 76.659705 92.234498 76.447554 92.57622 76.1875 92.90625 C 76.027641 93.109124 75.843475 93.294127 75.6875 93.5 C 75.67995 93.50997 75.71145 93.5211 75.71875 93.53125 C 76.323835 93.075264 76.73968 92.395923 77.125 91.75 C 77.332049 91.419061 77.564559 91.112449 77.8125 90.8125 C 77.811459 90.871825 77.82431 90.926809 77.84375 91 C 77.894754 91.259287 78.120289 91.31194 78.34375 91.375 C 78.978329 91.4658 79.610205 91.46245 80.25 91.46875 C 80.779559 91.398929 81.262036 91.59791 81.75 91.75 C 81.929762 91.77751 82.099506 91.8053 82.28125 91.8125 L 82.46875 91.65625 C 82.287685 91.65238 82.117035 91.61654 81.9375 91.59375 C 81.447733 91.442113 81.000339 91.24199 80.46875 91.3125 C 79.830326 91.30645 79.196451 91.30291 78.5625 91.21875 C 78.346706 91.158417 78.11104 91.127496 78.0625 90.875 C 77.987342 90.575672 78.182958 90.421262 78.125 90.40625 C 78.14295 90.382325 78.169908 90.36793 78.1875 90.34375 C 78.1859 90.33429 78.1958 90.3077 78.1875 90.3125 z M 63.1875 91.625 L 63 91.78125 C 64.101077 91.994771 65.195761 92.141428 66.3125 92.25 C 67.583104 92.320921 68.852085 92.36812 70.125 92.34375 C 70.826397 92.33321 71.549608 92.41439 72.25 92.375 C 72.624776 92.325102 72.764665 92.411913 73.03125 92.65625 C 73.475901 93.030669 73.898598 93.430434 74.40625 93.71875 C 74.7898 93.993587 75.116105 93.876896 75.5 93.6875 C 75.556891 93.652623 75.60272 93.600894 75.65625 93.5625 C 75.305586 93.73423 74.986866 93.85426 74.625 93.59375 C 74.117053 93.309422 73.69375 92.903759 73.25 92.53125 C 72.978977 92.283488 72.819167 92.16784 72.4375 92.21875 C 71.737995 92.26554 71.04462 92.20517 70.34375 92.21875 C 69.071312 92.245829 67.801486 92.16251 66.53125 92.09375 C 65.415628 91.98529 64.287812 91.836055 63.1875 91.625 z M 58.625 91.71875 L 58.40625 91.8125 C 58.159853 91.968832 57.892074 92.100403 57.625 92.21875 L 57.4375 92.375 C 57.856838 92.190102 58.231801 91.951748 58.625 91.71875 z "
       transform="translate(0,924.36218)"
       id="path3017" />
    <path
       style="fill:#ffffff;stroke:#000000;stroke-width:1;stroke-linecap:round;stroke-linejoin:miter;stroke-miterlimit:4;stroke-opacity:1;stroke-dasharray:none"
       d="M 81.8125 107.03125 C 81.76925 107.06133 81.726347 107.08927 81.6875 107.125 C 81.646449 107.12611 81.602043 107.11483 81.5625 107.125 C 81.50953 107.13859 81.55044 107.2613 81.53125 107.3125 C 81.432948 107.57489 81.30805 107.79652 81.15625 108.03125 C 80.779037 108.56429 80.379991 109.11932 79.90625 109.5625 C 78.679474 109.4353 77.451046 109.4255 76.21875 109.46875 C 76.219097 109.41906 76.216751 109.36226 76.21875 109.3125 C 76.425461 109.14008 76.509237 108.92177 76.53125 108.53125 C 76.46753 108.48504 76.5303 108.33465 76.46875 108.28125 C 76.45166 108.26675 76.42422 108.26755 76.40625 108.28125 C 76.346252 108.32707 76.290359 108.36588 76.25 108.40625 C 76.23494 108.39565 76.17029 108.4309 76.1875 108.4375 C 76.203103 108.44347 76.229789 108.44079 76.25 108.4375 C 76.087695 108.60657 76.050654 108.74231 76.03125 109.03125 C 76.019425 109.14701 76.005481 109.25915 76 109.375 C 75.969455 109.39031 75.942627 109.42878 75.90625 109.4375 C 75.812984 109.4601 75.719079 109.48014 75.625 109.5 C 75.392391 109.47117 75.169812 109.43695 74.9375 109.40625 C 73.880254 109.24554 72.824432 109.01118 71.78125 108.78125 L 71.5625 108.9375 C 72.606504 109.16897 73.6607 109.40084 74.71875 109.5625 C 74.822142 109.57622 74.927803 109.58032 75.03125 109.59375 C 74.813007 109.62569 74.591017 109.64443 74.375 109.6875 C 74.195643 109.70278 74.022939 109.71241 73.84375 109.71875 L 73.625 109.875 C 73.41912 109.93267 73.201685 109.98919 73 110.0625 C 72.354297 110.34142 71.677486 110.50646 71.03125 110.78125 C 70.891768 110.82377 70.946695 110.7987 70.8125 110.8125 L 70.625 110.96875 C 70.762887 110.96075 70.701066 110.9771 70.84375 110.9375 C 71.48537 110.65365 72.169844 110.50385 72.8125 110.21875 C 73.257317 110.05433 73.724269 109.90557 74.1875 109.8125 C 74.594614 109.77685 75.006131 109.73779 75.40625 109.65625 C 75.416482 109.65753 75.427268 109.65498 75.4375 109.65625 C 75.624091 109.67943 75.813176 109.69766 76 109.71875 C 76.00741 109.92831 76.039399 110.13841 76.09375 110.34375 L 76.15625 110.53125 L 76.375 110.40625 L 76.3125 110.21875 C 76.270756 110.05846 76.26176 109.91305 76.25 109.75 C 76.800568 109.80862 77.352889 109.8509 77.90625 109.875 C 78.439291 109.8886 78.966782 109.90577 79.5 109.90625 C 79.456349 109.93833 79.420183 109.96945 79.375 110 L 79.59375 109.90625 C 79.844613 109.9063 80.092906 109.90687 80.34375 109.90625 C 80.617848 109.89235 80.859461 109.8722 81.125 109.9375 L 81.1875 109.90625 C 82.439122 110.09041 83.745209 110.31228 85 110.65625 C 85.571807 110.99906 86.148478 111.33411 86.75 111.625 C 86.840051 111.67244 87.673543 111.99935 87.78125 111.90625 C 87.855261 111.84227 87.98668 111.74085 87.9375 111.65625 C 87.850277 111.50624 87.650095 111.49335 87.5 111.40625 C 87.314608 111.30787 87.13119 111.17455 86.9375 111.09375 C 86.387383 110.86417 85.803289 110.69304 85.21875 110.53125 C 84.464249 110.07988 83.735804 109.57346 83.0625 109 C 82.659778 108.60107 82.327437 108.2622 82.03125 107.78125 C 81.908189 107.58143 81.72543 107.37475 81.78125 107.125 C 81.804596 107.06274 81.847593 107.00688 81.8125 107.03125 z M 81.59375 107.59375 C 81.595415 107.59051 81.623344 107.59699 81.625 107.59375 C 81.680391 107.70248 81.750643 107.80586 81.8125 107.90625 C 82.109756 108.38867 82.439998 108.75581 82.84375 109.15625 C 83.367946 109.60305 83.924441 109.97296 84.5 110.34375 C 83.391622 110.08182 82.251756 109.91013 81.15625 109.75 C 80.77391 109.69303 80.384454 109.63496 80 109.59375 C 80.540945 109.12299 80.960303 108.5263 81.375 107.9375 C 81.450068 107.8192 81.529153 107.71934 81.59375 107.59375 z M 76.3125 108.625 C 76.298796 108.82956 76.29659 109.00094 76.25 109.125 C 76.255085 109.05531 76.242964 108.97585 76.25 108.90625 C 76.25616 108.82586 76.26798 108.767 76.28125 108.6875 C 76.284636 108.66722 76.303541 108.64515 76.3125 108.625 z M 76 109.4375 C 75.99964 109.44798 76.000289 109.45827 76 109.46875 C 75.979123 109.46966 75.958375 109.46779 75.9375 109.46875 C 75.95795 109.45951 75.980879 109.44703 76 109.4375 z M 76.9375 109.59375 C 77.867192 109.59276 78.793764 109.62333 79.71875 109.71875 C 79.707186 109.72851 79.699171 109.74034 79.6875 109.75 C 79.161147 109.74967 78.619941 109.73199 78.09375 109.71875 C 77.561135 109.69629 77.030014 109.68011 76.5 109.625 C 76.646524 109.62234 76.790944 109.59391 76.9375 109.59375 z M 85.9375 110.96875 C 86.201334 111.05898 86.465146 111.14445 86.71875 111.25 C 86.912261 111.33054 87.096077 111.43305 87.28125 111.53125 C 87.40345 111.60019 87.434647 111.64499 87.5 111.6875 C 87.320275 111.63881 87.142667 111.5551 86.96875 111.46875 C 86.620124 111.30054 86.277175 111.1533 85.9375 110.96875 z "
       transform="translate(0,924.36218)"
       id="path3023" />
    <rect
       style="fill:#ffffff;stroke:#000000;stroke-width:1.5;stroke-linecap:round;stroke-linejoin:miter;stroke-miterlimit:4;stroke-opacity:1;stroke-dasharray:none"
       id="rect3029"
       width="7.0710678"
       height="7.0710678"
       x="92.934036"
       y="25.722055"
       transform="translate(0,924.36218)" />
    <rect
       y="962.71118"
       x="92.934036"
       height="7.0710678"
       width="7.0710678"
       id="rect3031"
       style="fill:#ffffff;stroke:#000000;stroke-width:1.5;stroke-linecap:round;stroke-linejoin:miter;stroke-miterlimit:4;stroke-opacity:1;stroke-dasharray:none" />
    <rect
       style="fill:#ffffff;stroke:#000000;stroke-width:1.5;stroke-linecap:round;stroke-linejoin:miter;stroke-miterlimit:4;stroke-opacity:1;stroke-dasharray:none"
       id="rect3033"
       width="7.0710678"
       height="7.0710678"
       x="92.934036"
       y="975.33807" />
    <rect
       y="987.96497"
       x="92.934036"
       height="7.0710678"
       width="7.0710678"
       id="rect3035"
       style="fill:#ffffff;stroke:#000000;stroke-width:1.5;stroke-linecap:round;stroke-linejoin:miter;stroke-miterlimit:4;stroke-opacity:1;stroke-dasharray:none" />
    <rect
       style="fill:#ffffff;stroke:#000000;stroke-width:1.5;stroke-linecap:round;stroke-linejoin:miter;stroke-miterlimit:4;stroke-opacity:1;stroke-dasharray:none"
       id="rect3037"
       width="7.0710678"
       height="7.0710678"
       x="92.934036"
       y="1000.5919" />
    <rect
       y="1013.2188"
       x="92.934036"
       height="7.0710678"
       width="7.0710678"
       id="rect3039"
       style="fill:#ffffff;stroke:#000000;stroke-width:1.5;stroke-linecap:round;stroke-linejoin:miter;stroke-miterlimit:4;stroke-opacity:1;stroke-dasharray:none" />
    <text
       xml:space="preserve"
       style="font-size:40px;font-style:normal;font-weight:normal;line-height:125%;letter-spacing:0px;word-spacing:0px;fill:#000000;fill-opacity:1;stroke:none;font-family:Sans"
       x="162.63457"
       y="31.78297"
       id="text3051"
       sodipodi:linespacing="125%"
       transform="translate(0,924.36218)"><tspan
         sodipodi:role="line"
         id="tspan3053" /></text>
  </g>
</svg>
